<svg width="12" height="12" viewBox="0 0 12 12" fill="none" xmlns="http://www.w3.org/2000/svg">
<path d="M5.99994 4.26448L9.70808 3.05176e-05L11.9999 4.26448H5.99994Z" fill="#E7263D"/>
<path d="M6.00001 4.26448L2.29187 3.05176e-05H9.70849L6.00034 4.26448H6.00001Z" fill="#FF7676"/>
<path d="M5.99994 4.26445H11.9999L5.99994 11.4129V4.26445Z" fill="#AD1515"/>
<path d="M6.00006 4.26445H6.10352e-05L2.29191 0L6.00006 4.26445Z" fill="#EA292C"/>
<path d="M6 11.4129L0 4.26445H6V11.4129Z" fill="#E7263D"/>
<mask id="mask0_11_555" style="mask-type:alpha" maskUnits="userSpaceOnUse" x="0" y="0" width="12" height="12">
<path d="M5.99994 4.26448L9.70808 3.05176e-05L11.9999 4.26448H5.99994Z" fill="#ED1C24"/>
<path d="M6.00001 4.26448L2.29187 3.05176e-05H9.70849L6.00034 4.26448H6.00001Z" fill="#FF7676"/>
<path d="M5.99994 4.26445H11.9999L5.99994 11.4129V4.26445Z" fill="#AD1515"/>
<path d="M6.00006 4.26445H6.10352e-05L2.29191 0L6.00006 4.26445Z" fill="#EA292C"/>
<path d="M6 11.4129L0 4.26445H6V11.4129Z" fill="#D5241C"/>
</mask>
<g mask="url(#mask0_11_555)">
<g style="mix-blend-mode:soft-light">
<g style="mix-blend-mode:soft-light">
<path d="M11.9153 2.92872L0.796149 6.69654L0.012085 4.38247L11.1312 0.614655L11.9153 2.92872Z" fill="white"/>
</g>
<g style="mix-blend-mode:soft-light" opacity="0.5">
<path d="M13.8938 4.61518L0.10518 9.28774L-0.338074 7.9792L13.4505 3.30664L13.8938 4.61518Z" fill="white"/>
</g>
</g>
<path opacity="0.6" d="M8.92246 2.5591C8.20934 2.5591 7.63149 3.13695 7.63149 3.85007C7.63149 3.13695 7.05363 2.5591 6.34052 2.5591C7.05363 2.5591 7.63149 1.98124 7.63149 1.26813C7.63149 1.98124 8.20934 2.5591 8.92246 2.5591Z" fill="white"/>
</g>
</svg>
